<?xml version="1.0" encoding="UTF-8"?>
<svg id="Layer_1" data-name="Layer 1" xmlns="http://www.w3.org/2000/svg" xmlns:xlink="http://www.w3.org/1999/xlink" viewBox="0 0 2551.18 1729.13">
  <defs>
    <style>
      .cls-1 {
        stroke-dasharray: 0 0 11.92 29.8;
      }

      .cls-1, .cls-2, .cls-3, .cls-4, .cls-5, .cls-6, .cls-7, .cls-8, .cls-9, .cls-10, .cls-11, .cls-12 {
        fill: none;
        stroke-miterlimit: 10;
      }

      .cls-1, .cls-2, .cls-3, .cls-4, .cls-6, .cls-7, .cls-8, .cls-9, .cls-10, .cls-12 {
        stroke: #fff;
      }

      .cls-1, .cls-3, .cls-4, .cls-5, .cls-10, .cls-11 {
        stroke-width: 5px;
      }

      .cls-2 {
        stroke-width: 7px;
      }

      .cls-3 {
        stroke-dasharray: 0 0 11.94 29.86;
      }

      .cls-5 {
        stroke-dasharray: 0 0 11.47 28.68;
      }

      .cls-5, .cls-11 {
        stroke: #000;
      }

      .cls-6 {
        stroke-width: 10.7px;
      }

      .cls-13 {
        fill: #383a43;
      }

      .cls-13, .cls-14, .cls-15, .cls-16 {
        stroke-width: 0px;
      }

      .cls-14 {
        fill: #fff;
      }

      .cls-7 {
        stroke-width: 5.35px;
      }

      .cls-8 {
        stroke-width: 51.75px;
      }

      .cls-15 {
        fill: url(#radial-gradient-2);
      }

      .cls-9 {
        stroke-width: 8.02px;
      }

      .cls-10 {
        stroke-dasharray: 0 0 12.53 31.33;
      }

      .cls-16 {
        fill: url(#radial-gradient);
      }

      .cls-12 {
        stroke-width: 6px;
      }
    </style>
    <radialGradient id="radial-gradient" cx="893.59" cy="1420.32" fx="893.59" fy="1420.32" r="850.39" gradientTransform="translate(679.86 -103.81) scale(.67)" gradientUnits="userSpaceOnUse">
      <stop offset="0" stop-color="#adb5bd"/>
      <stop offset="1" stop-color="#383a43"/>
    </radialGradient>
    <radialGradient id="radial-gradient-2" cx="893.59" cy="1420.32" fx="893.59" fy="1420.32" r="680.31" gradientTransform="translate(679.86 -103.81) scale(.67)" gradientUnits="userSpaceOnUse">
      <stop offset="0" stop-color="#7d8293"/>
      <stop offset="1" stop-color="#4f525b"/>
    </radialGradient>
  </defs>
  <rect class="cls-13" x="-17.88" y="-18.51" width="2570" height="1766"/>
  <rect class="cls-14" x="-24.88" y="661.99" width="849.47" height="368"/>
  <line class="cls-4" x1="-57.41" y1="1077.99" x2="781.59" y2="1077.99"/>
  <line class="cls-4" x1="1803.59" y1="662.49" x2="2642.59" y2="662.49"/>
  <line class="cls-4" x1="1823.59" y1="712.49" x2="2662.59" y2="712.49"/>
  <line class="cls-4" x1="1827.59" y1="765.49" x2="2666.59" y2="765.49"/>
  <line class="cls-4" x1="1787.59" y1="1066.49" x2="2626.59" y2="1066.49"/>
  <line class="cls-4" x1="1761.59" y1="1104.49" x2="2639.09" y2="1104.49"/>
  <line class="cls-4" x1="1915.59" y1="1153.49" x2="2614.09" y2="1153.49"/>
  <g>
    <line class="cls-4" x1="2028.59" y1="910.49" x2="2034.59" y2="910.49"/>
    <line class="cls-1" x1="2064.39" y1="910.49" x2="2550.19" y2="910.49"/>
  </g>
  <g>
    <line class="cls-11" x1="313.09" y1="840.49" x2="319.09" y2="840.49"/>
    <line class="cls-5" x1="347.77" y1="840.49" x2="694.75" y2="840.49"/>
    <line class="cls-11" x1="709.09" y1="840.49" x2="715.09" y2="840.49"/>
  </g>
  <g>
    <line class="cls-4" x1="1847.59" y1="608.49" x2="1853.59" y2="608.49"/>
    <line class="cls-3" x1="1883.45" y1="608.49" x2="2161.16" y2="608.49"/>
    <line class="cls-4" x1="2176.09" y1="608.49" x2="2182.09" y2="608.49"/>
  </g>
  <line class="cls-4" x1="-63.41" y1="1119.49" x2="393.09" y2="1119.49"/>
  <line class="cls-4" x1="489.09" y1="1121.49" x2="637.09" y2="1121.49"/>
  <line class="cls-4" x1="711.09" y1="1121.49" x2="878.59" y2="1121.49"/>
  <line class="cls-4" x1="-31.41" y1="563.49" x2="807.59" y2="563.49"/>
  <g>
    <line class="cls-4" x1="422.09" y1="517.49" x2="428.09" y2="517.49"/>
    <line class="cls-10" x1="459.42" y1="517.49" x2="706.93" y2="517.49"/>
    <line class="cls-4" x1="722.59" y1="517.49" x2="728.59" y2="517.49"/>
  </g>
  <line class="cls-4" x1="-115.41" y1="608.49" x2="723.59" y2="608.49"/>
  <circle class="cls-9" cx="777.59" cy="513.99" r="21.26"/>
  <circle class="cls-9" cx="1891.59" cy="1153.99" r="21.26"/>
  <circle class="cls-7" cx="383.59" cy="515.99" r="14.17"/>
  <circle class="cls-6" cx="2207.59" cy="605.99" r="28.35"/>
  <circle class="cls-2" cx="440.59" cy="1121.99" r="28.35"/>
  <circle class="cls-12" cx="677.84" cy="1121.24" r="14.17"/>
  <circle class="cls-16" cx="1275.59" cy="843.07" r="566.93"/>
  <g>
    <path class="cls-14" d="m1784.77,875.81h-476.34s0,476.44,0,476.44c119.43-7.66,236.68-57.11,327.95-148.39,91.3-91.3,140.76-208.59,148.39-328.05Z"/>
    <path class="cls-14" d="m1308.43,810.33h476.34c-7.63-119.46-57.09-236.75-148.39-328.05-91.27-91.27-208.52-140.73-327.95-148.38v476.43Z"/>
    <path class="cls-14" d="m1242.95,810.33v-476.45c-119.5,7.61-236.82,57.07-328.15,148.4-91.3,91.3-140.76,208.59-148.39,328.05h476.54Z"/>
    <path class="cls-14" d="m1242.95,875.81h-476.54c7.64,119.46,57.09,236.75,148.39,328.05,91.32,91.32,208.65,140.78,328.15,148.4v-476.45Z"/>
  </g>
  <circle class="cls-15" cx="1275.59" cy="843.07" r="453.54"/>
  <circle class="cls-8" cx="1275.59" cy="843.07" r="255.12"/>
  <g>
    <path class="cls-14" d="m1530.89,549.43l6.17-6.17c-141.35-121.48-357.48-115.28-506.05,14.51l4.09,4.09c145.98-126.3,357.54-131.77,495.79-12.43Z"/>
    <path class="cls-14" d="m1018.42,1138.64l-4.22,4.22c141.36,121.49,357.52,115.28,506.08-14.54l-5.73-5.73c-145.38,127.62-357.13,134.31-496.14,16.05Z"/>
    <path class="cls-14" d="m1559.41,1076.68l-14.05-14.05-5.47,5.47,35.92,35.92,5.47-5.47-15.98-15.98c125.53-148.38,130.22-361.2,10.13-500.94l-6.3,6.3c116.27,136.66,111.76,343.65-9.71,488.75Z"/>
    <path class="cls-14" d="m990.06,598.77c-129.51,148.55-135.62,364.48-14.23,505.72l4.09-4.09c-119.86-138.85-113.81-351.65,14.09-497.69l16.25,16.25,5.47-5.47-35.92-35.92-5.47,5.47,15.73,15.73Z"/>
  </g>
</svg>